HIERARCHY
ROOT SpineBase
{
  OFFSET 0.000000 0.000000 0.000000
  CHANNELS 6 Xposition Yposition Zposition Zrotation Xrotation Yrotation
  JOINT SpineMid
  {
    OFFSET 0.000000 27.053430 0.000000
    CHANNELS 3 Zrotation Xrotation Yrotation
    JOINT SpineShoulder
    {
      OFFSET -0.049641 20.196185 -0.690458
      CHANNELS 3 Zrotation Xrotation Yrotation
      JOINT Neck
      {
        OFFSET -0.029310 6.717433 -0.491800
        CHANNELS 3 Zrotation Xrotation Yrotation
        JOINT Head
        {
          OFFSET -2.564427 11.688812 1.346938
          CHANNELS 3 Zrotation Xrotation Yrotation
          End Site
          {
            OFFSET 0 0 0
          }
        }
      }
      JOINT ShoulderLeft
      {
        OFFSET -12.700732 -3.648112 4.409097
        CHANNELS 3 Zrotation Xrotation Yrotation
        JOINT ElbowLeft
        {
          OFFSET 0.112907 -26.494236 0.564856
          CHANNELS 3 Zrotation Xrotation Yrotation
          JOINT WristLeft
          {
            OFFSET -1.673701 -21.178385 -4.886796
            CHANNELS 3 Zrotation Xrotation Yrotation
            JOINT HandLeft
            {
              OFFSET 0.292465 -3.799624 -1.507340
              CHANNELS 3 Zrotation Xrotation Yrotation
              JOINT HandTipLeft
              {
                OFFSET -0.135934 -6.908489 -1.424977
                CHANNELS 3 Zrotation Xrotation Yrotation
                End Site
                {
                  OFFSET 0 0 0
                }
              }
              JOINT ThumbLeft
              {
                OFFSET 3.252705 0.426794 -2.078480
                CHANNELS 3 Zrotation Xrotation Yrotation
                End Site
                {
                  OFFSET 0 0 0
                }
              }
            }
          }
        }
      }
      JOINT ShoulderRight
      {
        OFFSET 11.241286 -2.549494 -7.433681
        CHANNELS 3 Zrotation Xrotation Yrotation
        JOINT ElbowRight
        {
          OFFSET 3.230600 -22.950974 -3.963090
          CHANNELS 3 Zrotation Xrotation Yrotation
          JOINT WristRight
          {
            OFFSET 0.310457 -19.885154 -5.936349
            CHANNELS 3 Zrotation Xrotation Yrotation
            JOINT HandRight
            {
              OFFSET -0.699635 -7.216442 -0.929032
              CHANNELS 3 Zrotation Xrotation Yrotation
              JOINT HandTipRight
              {
                OFFSET -0.180166 -6.475638 -0.582675
                CHANNELS 3 Zrotation Xrotation Yrotation
                End Site
                {
                  OFFSET 0 0 0
                }
              }
              JOINT ThumbRight
              {
                OFFSET 1.851285 -1.056583 -2.957252
                CHANNELS 3 Zrotation Xrotation Yrotation
                End Site
                {
                  OFFSET 0 0 0
                }
              }
            }
          }
        }
      }
    }
  }
  JOINT HipLeft
  {
    OFFSET -5.716858 0.271491 -0.763092
    CHANNELS 3 Zrotation Xrotation Yrotation
    JOINT KneeLeft
    {
      OFFSET 5.809297 -30.388557 2.222039
      CHANNELS 3 Zrotation Xrotation Yrotation
      JOINT AnkleLeft
      {
        OFFSET 5.953561 -33.168597 5.268946
        CHANNELS 3 Zrotation Xrotation Yrotation
        JOINT FootLeft
        {
          OFFSET -3.575993 -2.450851 -9.995051
          CHANNELS 3 Zrotation Xrotation Yrotation
          End Site
          {
            OFFSET 0 0 0
          }
        }
      }
    }
  }
  JOINT HipRight
  {
    OFFSET 5.061425 1.328117 -5.307842
    CHANNELS 3 Zrotation Xrotation Yrotation
    JOINT KneeRight
    {
      OFFSET 7.801870 -27.762496 -2.958178
      CHANNELS 3 Zrotation Xrotation Yrotation
      JOINT AnkleRight
      {
        OFFSET 5.721705 -34.065737 5.411787
        CHANNELS 3 Zrotation Xrotation Yrotation
        JOINT FootRight
        {
          OFFSET -3.496578 -5.837697 -2.566333
          CHANNELS 3 Zrotation Xrotation Yrotation
          End Site
          {
            OFFSET 0 0 0
          }
        }
      }
    }
  }
}
MOTION
Frames: 10
Frame Time: 0.033333
48.996273 66.129153 374.326531 8.647282 -16.367364 -3.232905 -1.292970 0.082942 4.855231 -0.452343 0.371076 0.256046 -13.278970 6.190231 0.418080 0.000000 0.000000 0.000000 -17.881287 -25.344364 -0.899960 88.116280 50.282131 -73.558775 -11.607616 -34.822195 5.749306 18.610095 34.338442 -12.637392 0.000000 0.000000 0.000000 0.000000 0.000000 0.000000 39.287232 -10.070093 -13.987205 -96.166335 -18.700332 32.010372 35.696896 -36.269039 -18.128596 -37.963863 37.339995 25.278658 0.000000 0.000000 0.000000 0.000000 0.000000 0.000000 -21.809759 19.698022 9.747684 7.447128 -4.474554 -0.370170 7.211105 -9.409554 -4.733614 0.000000 0.000000 0.000000 -22.102118 22.767309 13.482816 7.122470 -2.284834 -2.449643 6.550271 -28.899625 13.896682 0.000000 0.000000 0.000000
48.858258 66.270285 373.818795 7.333273 -15.823270 -4.628143 -1.468259 0.038187 5.996445 -0.613200 0.385004 0.213915 -11.252970 6.751214 0.399841 0.000000 0.000000 0.000000 -17.954519 -27.805554 -1.605586 87.274129 43.290842 -70.669640 -29.867592 -21.320060 1.825318 29.403978 24.563124 -11.625655 0.000000 0.000000 0.000000 0.000000 0.000000 0.000000 39.741559 -10.970624 -13.292108 -94.848214 -18.228520 32.738749 34.639507 -30.351939 -17.581604 -29.634113 32.972453 18.288347 0.000000 0.000000 0.000000 0.000000 0.000000 0.000000 -21.028522 18.896099 10.650335 7.773299 -5.469307 -0.521978 6.292644 -6.201201 -4.242942 0.000000 0.000000 0.000000 -20.897179 22.101053 14.275459 6.730806 -3.092268 -2.641988 4.881847 -23.625029 10.776952 0.000000 0.000000 0.000000
48.704146 66.476435 373.312137 6.005838 -15.271540 -5.261854 -1.583437 0.044920 6.377550 -0.580329 0.439617 0.158887 -9.292085 7.367527 0.383375 0.000000 0.000000 0.000000 -16.113532 -27.868793 -1.724630 83.091333 36.965415 -65.368254 -56.185218 -5.311347 3.798080 50.042095 8.221779 -7.036345 0.000000 0.000000 0.000000 0.000000 0.000000 0.000000 39.684074 -11.892120 -12.497584 -93.065514 -17.796919 33.388234 31.261767 -23.885576 -17.053864 -23.837478 27.189669 13.780052 0.000000 0.000000 0.000000 0.000000 0.000000 0.000000 -20.044102 18.584798 10.901182 8.179247 -6.617479 -0.671456 5.103801 -2.751634 -3.295655 0.000000 0.000000 0.000000 -19.419426 21.510445 14.268670 6.532485 -3.639572 -2.745356 8.198791 -28.757673 14.985934 0.000000 0.000000 0.000000
48.531095 66.733370 372.774930 4.678449 -14.709098 -4.392014 -1.563090 0.016772 5.258207 -0.481692 0.430699 0.107265 -7.230657 8.039505 0.295605 0.000000 0.000000 0.000000 -13.161414 -26.232467 -1.413227 78.234748 31.814052 -59.762509 -78.900370 8.475244 12.206377 67.469046 -5.032726 2.158470 0.000000 0.000000 0.000000 0.000000 0.000000 0.000000 39.227925 -12.646601 -11.792392 -91.128592 -17.219413 34.011139 26.295929 -16.362990 -15.914288 -18.601181 20.191712 9.697261 0.000000 0.000000 0.000000 0.000000 0.000000 0.000000 -18.680147 19.104909 9.806588 8.753957 -8.153550 -0.826846 3.788859 -0.171120 -1.225629 0.000000 0.000000 0.000000 -17.376447 21.056737 12.634172 6.458221 -3.872308 -2.753238 5.696955 -21.314458 10.140074 0.000000 0.000000 0.000000
48.325810 67.035364 372.273863 3.466635 -14.135960 -2.616388 -1.457190 0.049237 3.254897 -0.340138 0.465699 0.060583 -5.830839 8.415326 0.297225 0.000000 0.000000 0.000000 -10.213596 -23.719955 -1.024924 74.914877 28.488056 -55.631532 -86.550405 10.875402 15.348029 70.885242 -9.834285 5.045509 0.000000 0.000000 0.000000 0.000000 0.000000 0.000000 38.681825 -13.297497 -11.110087 -89.460422 -16.614539 34.453077 20.794575 -10.654892 -14.489323 -12.977241 16.247097 6.575983 0.000000 0.000000 0.000000 0.000000 0.000000 0.000000 -17.013232 20.032888 7.862295 9.186872 -9.968163 -1.030421 4.990456 -2.688737 -2.462561 0.000000 0.000000 0.000000 -15.335535 20.514334 10.105946 6.822036 -3.835382 -2.640319 3.401331 -15.773370 7.145119 0.000000 0.000000 0.000000
48.161826 67.396658 371.833790 2.546517 -13.594289 0.298087 -1.356624 0.158901 0.171190 -0.199413 0.503137 0.025308 -5.049897 8.576557 0.377187 0.000000 0.000000 0.000000 -3.668877 -17.928019 -0.222210 64.921060 26.560846 -47.037981 -80.150335 15.295036 15.489946 63.329321 -13.602944 7.219593 0.000000 0.000000 0.000000 0.000000 0.000000 0.000000 38.109290 -13.660453 -10.524987 -88.125460 -16.149716 34.528721 15.090372 -6.335834 -12.873444 -8.161181 13.496482 4.370022 0.000000 0.000000 0.000000 0.000000 0.000000 0.000000 -15.461249 21.328301 4.914855 9.763386 -12.043395 -1.255780 5.790713 -4.612711 -2.063778 0.000000 0.000000 0.000000 -13.538748 19.888981 6.517321 7.719869 -3.553327 -2.419223 1.006738 -9.923114 4.267579 0.000000 0.000000 0.000000
47.944517 67.687622 371.442516 1.749543 -12.999622 2.185985 -0.999358 0.210627 -1.880258 -0.035293 0.541997 0.003660 -5.508384 8.468814 0.668509 0.000000 0.000000 0.000000 -0.076508 -15.126400 -0.012869 59.854517 28.523552 -44.231462 -71.170818 17.129639 12.452364 56.607185 -17.107083 9.223708 0.000000 0.000000 0.000000 0.000000 0.000000 0.000000 37.469640 -13.945017 -9.993232 -87.324470 -15.664248 34.542735 9.785940 -4.277943 -11.628708 -3.440788 12.389346 2.814349 0.000000 0.000000 0.000000 0.000000 0.000000 0.000000 -14.156580 21.839047 2.849655 10.001553 -13.604334 -1.483581 7.830577 -10.000244 0.382215 0.000000 0.000000 0.000000 -12.472063 19.026620 4.141395 8.811861 -3.333308 -2.217869 1.462616 -8.330049 3.202483 0.000000 0.000000 0.000000
47.687274 67.892214 371.184660 1.250726 -12.416899 3.301285 -0.512819 0.278906 -3.115286 0.115838 0.567943 -0.001270 -7.349143 8.091390 1.183627 0.000000 0.000000 0.000000 1.532984 -14.406286 0.072194 57.078399 28.085271 -42.364369 -77.332640 19.786788 15.517189 61.856571 -22.161728 12.647894 0.000000 0.000000 0.000000 0.000000 0.000000 0.000000 36.757490 -14.310293 -9.486371 -86.936791 -15.198669 34.618777 5.603672 -3.417961 -10.813498 -0.650374 11.803483 2.023286 0.000000 0.000000 0.000000 0.000000 0.000000 0.000000 -13.331468 21.944041 1.577869 9.727371 -14.896887 -1.834829 11.148745 -16.733820 4.870424 0.000000 0.000000 0.000000 -12.180922 18.294548 2.825820 10.139616 -3.273135 -2.043438 2.143515 -6.930170 1.931829 0.000000 0.000000 0.000000
47.370739 68.028203 370.963103 0.823495 -11.827019 3.531093 -0.041812 0.273280 -3.444246 0.124958 0.603200 0.001893 -9.004603 7.704359 1.630625 0.000000 0.000000 0.000000 1.733755 -15.314253 0.113405 56.713893 28.234311 -42.389720 -86.218326 21.933859 19.836891 67.698861 -27.356831 15.885046 0.000000 0.000000 0.000000 0.000000 0.000000 0.000000 36.401804 -14.680598 -9.052136 -87.036026 -14.396082 34.879648 1.227390 -3.618265 -10.410386 2.933414 11.230191 0.938344 0.000000 0.000000 0.000000 0.000000 0.000000 0.000000 -12.911550 21.701022 1.213053 9.080903 -16.357833 -2.378379 19.333071 -29.199668 12.754502 0.000000 0.000000 0.000000 -12.009159 18.075006 2.617163 10.940970 -4.113382 -2.086424 1.032113 2.123489 -3.036067 0.000000 0.000000 0.000000
47.035398 68.055789 370.788740 0.327013 -11.283064 2.863973 0.155798 0.359376 -2.857858 0.107988 0.621092 -0.005518 -8.858991 7.539087 1.714001 0.000000 0.000000 0.000000 1.062749 -16.951111 0.070017 58.085285 28.533600 -43.373913 -91.721817 20.859416 21.760131 67.866691 -28.107153 14.151267 0.000000 0.000000 0.000000 0.000000 0.000000 0.000000 36.798333 -14.745555 -8.729182 -87.653259 -14.209050 34.703612 2.002880 -4.570475 -11.053912 2.457957 12.048429 1.358412 0.000000 0.000000 0.000000 0.000000 0.000000 0.000000 -13.227786 20.830454 1.742040 8.808142 -17.184097 -2.805939 25.642254 -34.965750 19.177922 0.000000 0.000000 0.000000 -11.936189 18.111975 3.445322 11.519357 -5.123194 -2.168345 -1.323643 15.270817 -9.172752 0.000000 0.000000 0.000000
